<svg xmlns="http://www.w3.org/2000/svg" width="18" height="19" viewBox="0 0 18 19" fill="none">
  <path fill-rule="evenodd" clip-rule="evenodd" d="M9.86551 1.94525L11.6108 5.4815C11.751 5.76575 12.0225 5.963 12.3368 6.00875L16.239 6.57575C17.0295 6.6905 17.346 7.66325 16.773 8.2205L13.9493 10.973C13.8373 11.0822 13.7536 11.2169 13.7053 11.3655C13.6569 11.5142 13.6454 11.6724 13.6718 11.8265L14.3385 15.713C14.4735 16.5013 13.647 17.1013 12.9398 16.73L9.44926 14.8948C9.31096 14.822 9.15703 14.7839 9.00076 14.7839C8.84448 14.7839 8.69055 14.822 8.55226 14.8948L5.06176 16.73C4.35376 17.1013 3.52726 16.5013 3.66226 15.713L4.32901 11.8265C4.35526 11.6724 4.34373 11.5142 4.29539 11.3656C4.24706 11.2169 4.16337 11.0822 4.05151 10.973L1.22776 8.2205C0.655507 7.66325 0.971257 6.6905 1.76251 6.57575L5.66401 6.00875C5.97826 5.963 6.25051 5.76575 6.39076 5.4815L8.13526 1.94525C8.48926 1.22825 9.51151 1.22825 9.86551 1.94525" fill="#8B95A1"/>
</svg>