<svg xmlns="http://www.w3.org/2000/svg" width="11" height="10" viewBox="0 0 11 10" fill="none">
  <path d="M9.91935 0H1.58602C1.36501 0 1.15304 0.0877973 0.996763 0.244078C0.840483 0.400358 0.752686 0.61232 0.752686 0.833333V9.16667C0.752686 9.38768 0.840483 9.59964 0.996763 9.75592C1.15304 9.9122 1.36501 10 1.58602 10H9.91935C10.1404 10 10.3523 9.9122 10.5086 9.75592C10.6649 9.59964 10.7527 9.38768 10.7527 9.16667V0.833333C10.7527 0.61232 10.6649 0.400358 10.5086 0.244078C10.3523 0.0877973 10.1404 0 9.91935 0ZM8.54748 7.20521C8.58619 7.24392 8.6169 7.28988 8.63785 7.34046C8.6588 7.39104 8.66958 7.44525 8.66958 7.5C8.66958 7.55475 8.6588 7.60896 8.63785 7.65954C8.6169 7.71012 8.58619 7.75608 8.54748 7.79479C8.50876 7.8335 8.46281 7.86421 8.41223 7.88516C8.36165 7.90611 8.30743 7.9169 8.25269 7.9169C8.19794 7.9169 8.14373 7.90611 8.09315 7.88516C8.04256 7.86421 7.99661 7.8335 7.95789 7.79479L5.75269 5.58906L3.54748 7.79479C3.46929 7.87298 3.36325 7.9169 3.25269 7.9169C3.14212 7.9169 3.03608 7.87298 2.95789 7.79479C2.87971 7.71661 2.83579 7.61057 2.83579 7.5C2.83579 7.38943 2.87971 7.28339 2.95789 7.20521L5.16362 5L2.95789 2.79479C2.87971 2.71661 2.83579 2.61057 2.83579 2.5C2.83579 2.38943 2.87971 2.28339 2.95789 2.20521C3.03608 2.12702 3.14212 2.0831 3.25269 2.0831C3.36325 2.0831 3.46929 2.12702 3.54748 2.20521L5.75269 4.41094L7.95789 2.20521C8.03608 2.12702 8.14212 2.0831 8.25269 2.0831C8.36325 2.0831 8.46929 2.12702 8.54748 2.20521C8.62566 2.28339 8.66958 2.38943 8.66958 2.5C8.66958 2.61057 8.62566 2.71661 8.54748 2.79479L6.34175 5L8.54748 7.20521Z" fill="#D9D9D9"/>
</svg>