<svg xmlns="http://www.w3.org/2000/svg" width="100" height="100" viewBox="0 0 100 100" fill="none">
  <g clip-path="url(#clip0_80_2636)">
    <circle cx="50" cy="50" r="50" fill="#D9D9D9"/>
    <path d="M50.0006 47.4375C46.5645 47.4375 43.6215 46.2125 41.1715 43.7625C38.7215 41.3125 37.4979 38.3708 37.5007 34.9375C37.5007 31.4986 38.7243 28.5542 41.1715 26.1042C43.6187 23.6597 46.5618 22.4375 50.0006 22.4375C53.4395 22.4375 56.3826 23.6597 58.8298 26.1042C61.277 28.5542 62.5006 31.4986 62.5006 34.9375C62.5006 38.3736 61.277 41.3153 58.8298 43.7625C56.3826 46.2097 53.4395 47.4347 50.0006 47.4375ZM20.834 77.5625V70.7083C20.834 68.9889 21.334 67.3806 22.334 65.8833C23.3368 64.3833 24.684 63.2194 26.3757 62.3917C30.309 60.5056 34.2437 59.0917 38.1798 58.15C42.1187 57.2056 46.059 56.7333 50.0006 56.7333C53.9451 56.7333 57.8854 57.2056 61.8215 58.15C65.7576 59.0944 69.6909 60.5083 73.6215 62.3917C75.3159 63.2194 76.6631 64.3833 77.6631 65.8833C78.6659 67.3806 79.1673 68.9889 79.1673 70.7083V77.5667L20.834 77.5625Z" fill="black"/>
  </g>
  <defs>
    <clipPath id="clip0_80_2636">
      <rect width="100" height="100" fill="white"/>
    </clipPath>
  </defs>
</svg>