<svg width="140" height="23" viewBox="0 0 140 23" fill="none" xmlns="http://www.w3.org/2000/svg">
<path d="M4.99575 4.44H0.16375V0.599998H14.1798V4.44H9.34775V23H4.99575V4.44ZM21.0255 15.608H17.6015C17.1535 16.1627 16.9295 16.856 16.9295 17.688C16.9295 18.52 17.1642 19.1707 17.6335 19.64H21.0255V15.608ZM14.1455 6.648H22.0815C23.3615 7.416 24.2042 8.30133 24.6095 9.304C25.0148 10.2853 25.2175 11.6293 25.2175 13.336V18.136C25.2175 19.9067 25.2602 21.528 25.3455 23H21.6975L21.1215 21.848C20.2895 22.616 19.1162 23 17.6015 23H15.5855C13.7722 21.8053 12.8655 20.088 12.8655 17.848C12.8655 15.5867 13.7935 13.8053 15.6495 12.504H18.6575C19.4895 12.504 20.2682 12.76 20.9935 13.272V11.672C20.9935 10.84 20.6308 10.2853 19.9055 10.008H14.1455V6.648ZM40.3538 23H37.1218L36.5458 21.848C36.0764 22.2747 35.6284 22.5733 35.2018 22.744C34.7964 22.9147 34.1778 23 33.3458 23H30.5618C29.6231 22.104 28.8764 20.9307 28.3218 19.48C27.7884 18.0293 27.5218 16.408 27.5218 14.616C27.5218 12.8027 27.7884 11.2667 28.3218 10.008C28.8764 8.74933 29.6551 7.62933 30.6578 6.648H33.4098C34.5404 6.648 35.4364 6.94667 36.0978 7.544V0.599998H40.3538V23ZM36.0978 10.008H33.0258C32.2364 11.352 31.8418 13.0053 31.8418 14.968C31.8418 16.9093 32.2258 18.4667 32.9938 19.64H36.0978V10.008ZM50.8068 15.608H47.3828C46.9348 16.1627 46.7108 16.856 46.7108 17.688C46.7108 18.52 46.9454 19.1707 47.4148 19.64H50.8068V15.608ZM43.9268 6.648H51.8628C53.1428 7.416 53.9854 8.30133 54.3908 9.304C54.7961 10.2853 54.9988 11.6293 54.9988 13.336V18.136C54.9988 19.9067 55.0414 21.528 55.1268 23H51.4788L50.9028 21.848C50.0708 22.616 48.8974 23 47.3828 23H45.3668C43.5534 21.8053 42.6468 20.088 42.6468 17.848C42.6468 15.5867 43.5748 13.8053 45.4308 12.504H48.4388C49.2708 12.504 50.0494 12.76 50.7748 13.272V11.672C50.7748 10.84 50.4121 10.2853 49.6868 10.008H43.9268V6.648ZM57.751 23V0.599998H62.007V12.472H62.455L65.463 6.648H69.623L65.847 13.784L69.655 23H65.431L62.487 15.832H62.007V23H57.751ZM75.152 4.44H70.32V0.599998H84.336V4.44H79.504V23H75.152V4.44ZM91.1818 15.608H87.7578C87.3098 16.1627 87.0858 16.856 87.0858 17.688C87.0858 18.52 87.3204 19.1707 87.7898 19.64H91.1818V15.608ZM84.3018 6.648H92.2378C93.5178 7.416 94.3604 8.30133 94.7658 9.304C95.1711 10.2853 95.3738 11.6293 95.3738 13.336V18.136C95.3738 19.9067 95.4164 21.528 95.5018 23H91.8538L91.2778 21.848C90.4458 22.616 89.2724 23 87.7578 23H85.7418C83.9284 21.8053 83.0218 20.088 83.0218 17.848C83.0218 15.5867 83.9498 13.8053 85.8058 12.504H88.8138C89.6458 12.504 90.4244 12.76 91.1498 13.272V11.672C91.1498 10.84 90.7871 10.2853 90.0618 10.008H84.3018V6.648ZM110.51 23H107.278L106.702 21.848C106.233 22.2747 105.785 22.5733 105.358 22.744C104.953 22.9147 104.334 23 103.502 23H100.718C99.7793 22.104 99.0327 20.9307 98.478 19.48C97.9447 18.0293 97.678 16.408 97.678 14.616C97.678 12.8027 97.9447 11.2667 98.478 10.008C99.0327 8.74933 99.8113 7.62933 100.814 6.648H103.566C104.697 6.648 105.593 6.94667 106.254 7.544V0.599998H110.51V23ZM106.254 10.008H103.182C102.393 11.352 101.998 13.0053 101.998 14.968C101.998 16.9093 102.382 18.4667 103.15 19.64H106.254V10.008ZM120.963 15.608H117.539C117.091 16.1627 116.867 16.856 116.867 17.688C116.867 18.52 117.102 19.1707 117.571 19.64H120.963V15.608ZM114.083 6.648H122.019C123.299 7.416 124.142 8.30133 124.547 9.304C124.952 10.2853 125.155 11.6293 125.155 13.336V18.136C125.155 19.9067 125.198 21.528 125.283 23H121.635L121.059 21.848C120.227 22.616 119.054 23 117.539 23H115.523C113.71 21.8053 112.803 20.088 112.803 17.848C112.803 15.5867 113.731 13.8053 115.587 12.504H118.595C119.427 12.504 120.206 12.76 120.931 13.272V11.672C120.931 10.84 120.568 10.2853 119.843 10.008H114.083V6.648ZM127.907 23V0.599998H132.163V12.472H132.611L135.619 6.648H139.779L136.003 13.784L139.811 23H135.587L132.643 15.832H132.163V23H127.907Z" fill="#F49D1A"/>
</svg>
